<mxfile host="app.diagrams.net" agent="Mozilla/5.0 (Windows NT 10.0; Win64; x64) AppleWebKit/537.36 (KHTML, like Gecko) Chrome/137.0.0.0 Safari/537.36" version="27.1.6">
  <diagram name="Page-1" id="Uwa0BmpisSHKPLqrlgvb">
    <mxGraphModel dx="2767" dy="927" grid="1" gridSize="10" guides="1" tooltips="1" connect="1" arrows="1" fold="1" page="1" pageScale="1" pageWidth="827" pageHeight="1169" math="0" shadow="0">
      <root>
        <mxCell id="0" />
        <mxCell id="1" parent="0" />
        <mxCell id="SgrOB6nNnlSaveZYlPrG-9" value="" style="edgeStyle=orthogonalEdgeStyle;rounded=0;orthogonalLoop=1;jettySize=auto;html=1;" edge="1" parent="1" source="SgrOB6nNnlSaveZYlPrG-4">
          <mxGeometry relative="1" as="geometry">
            <mxPoint x="320" y="800" as="targetPoint" />
            <Array as="points">
              <mxPoint x="200" y="120" />
              <mxPoint x="200" y="800" />
            </Array>
          </mxGeometry>
        </mxCell>
        <mxCell id="SgrOB6nNnlSaveZYlPrG-12" value="" style="edgeStyle=orthogonalEdgeStyle;rounded=0;orthogonalLoop=1;jettySize=auto;html=1;" edge="1" parent="1" source="SgrOB6nNnlSaveZYlPrG-4" target="SgrOB6nNnlSaveZYlPrG-11">
          <mxGeometry relative="1" as="geometry" />
        </mxCell>
        <mxCell id="SgrOB6nNnlSaveZYlPrG-4" value="&lt;font style=&quot;font-size: 9px;&quot;&gt;New debit card?&lt;/font&gt;" style="whiteSpace=wrap;html=1;aspect=fixed;" vertex="1" parent="1">
          <mxGeometry x="320" y="80" width="80" height="80" as="geometry" />
        </mxCell>
        <mxCell id="SgrOB6nNnlSaveZYlPrG-7" value="Yes" style="text;html=1;align=center;verticalAlign=middle;whiteSpace=wrap;rounded=0;" vertex="1" parent="1">
          <mxGeometry x="410" y="90" width="60" height="30" as="geometry" />
        </mxCell>
        <mxCell id="SgrOB6nNnlSaveZYlPrG-10" value="No" style="text;html=1;align=center;verticalAlign=middle;whiteSpace=wrap;rounded=0;" vertex="1" parent="1">
          <mxGeometry x="250" y="90" width="60" height="30" as="geometry" />
        </mxCell>
        <mxCell id="SgrOB6nNnlSaveZYlPrG-16" value="" style="edgeStyle=orthogonalEdgeStyle;rounded=0;orthogonalLoop=1;jettySize=auto;html=1;" edge="1" parent="1" source="SgrOB6nNnlSaveZYlPrG-11" target="SgrOB6nNnlSaveZYlPrG-15">
          <mxGeometry relative="1" as="geometry" />
        </mxCell>
        <mxCell id="SgrOB6nNnlSaveZYlPrG-18" value="" style="edgeStyle=orthogonalEdgeStyle;rounded=0;orthogonalLoop=1;jettySize=auto;html=1;" edge="1" parent="1" source="SgrOB6nNnlSaveZYlPrG-11" target="SgrOB6nNnlSaveZYlPrG-17">
          <mxGeometry relative="1" as="geometry" />
        </mxCell>
        <mxCell id="SgrOB6nNnlSaveZYlPrG-11" value="&lt;font style=&quot;font-size: 9px;&quot;&gt;Do you want the saver account to be directly connected to this account?&lt;/font&gt;" style="whiteSpace=wrap;html=1;aspect=fixed;" vertex="1" parent="1">
          <mxGeometry x="480" y="80" width="80" height="80" as="geometry" />
        </mxCell>
        <mxCell id="SgrOB6nNnlSaveZYlPrG-41" style="edgeStyle=orthogonalEdgeStyle;rounded=0;orthogonalLoop=1;jettySize=auto;html=1;exitX=0;exitY=0.5;exitDx=0;exitDy=0;entryX=0;entryY=0.75;entryDx=0;entryDy=0;" edge="1" parent="1" source="SgrOB6nNnlSaveZYlPrG-15" target="SgrOB6nNnlSaveZYlPrG-11">
          <mxGeometry relative="1" as="geometry">
            <mxPoint x="470" y="140" as="targetPoint" />
            <Array as="points">
              <mxPoint x="440" y="280" />
              <mxPoint x="440" y="140" />
            </Array>
          </mxGeometry>
        </mxCell>
        <mxCell id="SgrOB6nNnlSaveZYlPrG-54" value="" style="edgeStyle=orthogonalEdgeStyle;rounded=0;orthogonalLoop=1;jettySize=auto;html=1;" edge="1" parent="1" source="SgrOB6nNnlSaveZYlPrG-15">
          <mxGeometry relative="1" as="geometry">
            <mxPoint x="520" y="400" as="targetPoint" />
          </mxGeometry>
        </mxCell>
        <mxCell id="SgrOB6nNnlSaveZYlPrG-15" value="so you&#39;re okay with opening 2 different accounts?" style="whiteSpace=wrap;html=1;aspect=fixed;" vertex="1" parent="1">
          <mxGeometry x="480" y="240" width="80" height="80" as="geometry" />
        </mxCell>
        <mxCell id="SgrOB6nNnlSaveZYlPrG-22" value="" style="edgeStyle=orthogonalEdgeStyle;rounded=0;orthogonalLoop=1;jettySize=auto;html=1;" edge="1" parent="1" source="SgrOB6nNnlSaveZYlPrG-17" target="SgrOB6nNnlSaveZYlPrG-21">
          <mxGeometry relative="1" as="geometry" />
        </mxCell>
        <mxCell id="SgrOB6nNnlSaveZYlPrG-24" value="" style="edgeStyle=orthogonalEdgeStyle;rounded=0;orthogonalLoop=1;jettySize=auto;html=1;" edge="1" parent="1" source="SgrOB6nNnlSaveZYlPrG-17" target="SgrOB6nNnlSaveZYlPrG-23">
          <mxGeometry relative="1" as="geometry" />
        </mxCell>
        <mxCell id="SgrOB6nNnlSaveZYlPrG-17" value="&lt;font size=&quot;1&quot;&gt;Do you want a high initial (1 year) interest rate&amp;nbsp;&lt;/font&gt;" style="whiteSpace=wrap;html=1;aspect=fixed;" vertex="1" parent="1">
          <mxGeometry x="880" y="240" width="80" height="80" as="geometry" />
        </mxCell>
        <mxCell id="SgrOB6nNnlSaveZYlPrG-19" value="Yes" style="text;html=1;align=center;verticalAlign=middle;whiteSpace=wrap;rounded=0;" vertex="1" parent="1">
          <mxGeometry x="920" y="200" width="60" height="30" as="geometry" />
        </mxCell>
        <mxCell id="SgrOB6nNnlSaveZYlPrG-20" value="No" style="text;html=1;align=center;verticalAlign=middle;whiteSpace=wrap;rounded=0;" vertex="1" parent="1">
          <mxGeometry x="520" y="200" width="60" height="30" as="geometry" />
        </mxCell>
        <mxCell id="SgrOB6nNnlSaveZYlPrG-31" value="" style="edgeStyle=orthogonalEdgeStyle;rounded=0;orthogonalLoop=1;jettySize=auto;html=1;" edge="1" parent="1" source="SgrOB6nNnlSaveZYlPrG-21" target="SgrOB6nNnlSaveZYlPrG-30">
          <mxGeometry relative="1" as="geometry" />
        </mxCell>
        <mxCell id="SgrOB6nNnlSaveZYlPrG-33" value="" style="edgeStyle=orthogonalEdgeStyle;rounded=0;orthogonalLoop=1;jettySize=auto;html=1;" edge="1" parent="1" source="SgrOB6nNnlSaveZYlPrG-21" target="SgrOB6nNnlSaveZYlPrG-32">
          <mxGeometry relative="1" as="geometry" />
        </mxCell>
        <mxCell id="SgrOB6nNnlSaveZYlPrG-21" value="&lt;font size=&quot;1&quot;&gt;Would you like to stay with the same service afterwards?&lt;/font&gt;" style="whiteSpace=wrap;html=1;aspect=fixed;" vertex="1" parent="1">
          <mxGeometry x="1160" y="400" width="80" height="80" as="geometry" />
        </mxCell>
        <mxCell id="SgrOB6nNnlSaveZYlPrG-37" value="" style="edgeStyle=orthogonalEdgeStyle;rounded=0;orthogonalLoop=1;jettySize=auto;html=1;" edge="1" parent="1" source="SgrOB6nNnlSaveZYlPrG-23">
          <mxGeometry relative="1" as="geometry">
            <mxPoint x="920" y="560" as="targetPoint" />
          </mxGeometry>
        </mxCell>
        <mxCell id="SgrOB6nNnlSaveZYlPrG-39" style="edgeStyle=orthogonalEdgeStyle;rounded=0;orthogonalLoop=1;jettySize=auto;html=1;entryX=0;entryY=0.5;entryDx=0;entryDy=0;" edge="1" parent="1" source="SgrOB6nNnlSaveZYlPrG-23" target="SgrOB6nNnlSaveZYlPrG-17">
          <mxGeometry relative="1" as="geometry">
            <mxPoint x="870" y="280" as="targetPoint" />
            <Array as="points">
              <mxPoint x="840" y="440" />
              <mxPoint x="840" y="280" />
            </Array>
          </mxGeometry>
        </mxCell>
        <mxCell id="SgrOB6nNnlSaveZYlPrG-23" value="&lt;font size=&quot;1&quot;&gt;So you want a more consistant account for ease of use?&lt;/font&gt;" style="whiteSpace=wrap;html=1;aspect=fixed;" vertex="1" parent="1">
          <mxGeometry x="880" y="400" width="80" height="80" as="geometry" />
        </mxCell>
        <mxCell id="SgrOB6nNnlSaveZYlPrG-25" value="No" style="text;html=1;align=center;verticalAlign=middle;whiteSpace=wrap;rounded=0;" vertex="1" parent="1">
          <mxGeometry x="920" y="360" width="60" height="30" as="geometry" />
        </mxCell>
        <mxCell id="SgrOB6nNnlSaveZYlPrG-27" value="Yes" style="text;html=1;align=center;verticalAlign=middle;whiteSpace=wrap;rounded=0;" vertex="1" parent="1">
          <mxGeometry x="1200" y="360" width="60" height="30" as="geometry" />
        </mxCell>
        <mxCell id="SgrOB6nNnlSaveZYlPrG-30" value="Chase" style="rhombus;whiteSpace=wrap;html=1;fillColor=#0050ef;fontColor=#ffffff;strokeColor=#001DBC;" vertex="1" parent="1">
          <mxGeometry x="1160" y="560" width="80" height="80" as="geometry" />
        </mxCell>
        <mxCell id="SgrOB6nNnlSaveZYlPrG-32" value="Trading 212" style="rhombus;whiteSpace=wrap;html=1;fillColor=#1ba1e2;fontColor=#ffffff;strokeColor=#006EAF;" vertex="1" parent="1">
          <mxGeometry x="1330" y="560" width="80" height="80" as="geometry" />
        </mxCell>
        <mxCell id="SgrOB6nNnlSaveZYlPrG-34" value="Yes" style="text;html=1;align=center;verticalAlign=middle;whiteSpace=wrap;rounded=0;" vertex="1" parent="1">
          <mxGeometry x="1370" y="520" width="60" height="30" as="geometry" />
        </mxCell>
        <mxCell id="SgrOB6nNnlSaveZYlPrG-35" value="No" style="text;html=1;align=center;verticalAlign=middle;whiteSpace=wrap;rounded=0;" vertex="1" parent="1">
          <mxGeometry x="1200" y="520" width="60" height="30" as="geometry" />
        </mxCell>
        <mxCell id="SgrOB6nNnlSaveZYlPrG-38" value="Yes" style="text;html=1;align=center;verticalAlign=middle;whiteSpace=wrap;rounded=0;" vertex="1" parent="1">
          <mxGeometry x="920" y="520" width="60" height="30" as="geometry" />
        </mxCell>
        <mxCell id="SgrOB6nNnlSaveZYlPrG-40" value="No" style="text;html=1;align=center;verticalAlign=middle;whiteSpace=wrap;rounded=0;" vertex="1" parent="1">
          <mxGeometry x="840" y="360" width="60" height="30" as="geometry" />
        </mxCell>
        <mxCell id="SgrOB6nNnlSaveZYlPrG-42" value="No" style="text;html=1;align=center;verticalAlign=middle;whiteSpace=wrap;rounded=0;" vertex="1" parent="1">
          <mxGeometry x="440" y="200" width="60" height="30" as="geometry" />
        </mxCell>
        <mxCell id="SgrOB6nNnlSaveZYlPrG-45" value="" style="edgeStyle=orthogonalEdgeStyle;rounded=0;orthogonalLoop=1;jettySize=auto;html=1;" edge="1" parent="1" source="SgrOB6nNnlSaveZYlPrG-43" target="SgrOB6nNnlSaveZYlPrG-44">
          <mxGeometry relative="1" as="geometry" />
        </mxCell>
        <mxCell id="SgrOB6nNnlSaveZYlPrG-47" value="" style="edgeStyle=orthogonalEdgeStyle;rounded=0;orthogonalLoop=1;jettySize=auto;html=1;" edge="1" parent="1" source="SgrOB6nNnlSaveZYlPrG-43" target="SgrOB6nNnlSaveZYlPrG-46">
          <mxGeometry relative="1" as="geometry">
            <Array as="points">
              <mxPoint x="800" y="640" />
            </Array>
          </mxGeometry>
        </mxCell>
        <mxCell id="SgrOB6nNnlSaveZYlPrG-48" value="" style="edgeStyle=orthogonalEdgeStyle;rounded=0;orthogonalLoop=1;jettySize=auto;html=1;" edge="1" parent="1" source="SgrOB6nNnlSaveZYlPrG-43" target="SgrOB6nNnlSaveZYlPrG-49">
          <mxGeometry relative="1" as="geometry">
            <mxPoint x="1040" y="720" as="targetPoint" />
            <Array as="points">
              <mxPoint x="1040" y="640" />
            </Array>
          </mxGeometry>
        </mxCell>
        <mxCell id="SgrOB6nNnlSaveZYlPrG-43" value="Want a bonus?" style="shape=hexagon;perimeter=hexagonPerimeter2;whiteSpace=wrap;html=1;fixedSize=1;" vertex="1" parent="1">
          <mxGeometry x="860" y="560" width="120" height="80" as="geometry" />
        </mxCell>
        <mxCell id="SgrOB6nNnlSaveZYlPrG-44" value="&lt;font style=&quot;color: light-dark(rgb(0, 0, 0), rgb(0, 0, 0));&quot;&gt;Revolut&lt;/font&gt;" style="rhombus;whiteSpace=wrap;html=1;fillColor=light-dark(#E1D5E7,#FFFFFF);strokeColor=#9673a6;" vertex="1" parent="1">
          <mxGeometry x="880" y="720" width="80" height="80" as="geometry" />
        </mxCell>
        <mxCell id="SgrOB6nNnlSaveZYlPrG-46" value="Starling" style="rhombus;whiteSpace=wrap;html=1;fillColor=light-dark(#6A00FF,#7F00FF);fontColor=#ffffff;strokeColor=#3700CC;" vertex="1" parent="1">
          <mxGeometry x="760" y="720" width="80" height="80" as="geometry" />
        </mxCell>
        <mxCell id="SgrOB6nNnlSaveZYlPrG-49" value="Trading 212" style="rhombus;whiteSpace=wrap;html=1;fillColor=#1ba1e2;fontColor=#ffffff;strokeColor=#006EAF;" vertex="1" parent="1">
          <mxGeometry x="1000" y="720" width="80" height="80" as="geometry" />
        </mxCell>
        <mxCell id="SgrOB6nNnlSaveZYlPrG-50" value="Potentially" style="text;html=1;align=center;verticalAlign=middle;whiteSpace=wrap;rounded=0;" vertex="1" parent="1">
          <mxGeometry x="920" y="680" width="60" height="30" as="geometry" />
        </mxCell>
        <mxCell id="SgrOB6nNnlSaveZYlPrG-51" value="Yes" style="text;html=1;align=center;verticalAlign=middle;whiteSpace=wrap;rounded=0;" vertex="1" parent="1">
          <mxGeometry x="1040" y="680" width="60" height="30" as="geometry" />
        </mxCell>
        <mxCell id="SgrOB6nNnlSaveZYlPrG-52" value="No" style="text;html=1;align=center;verticalAlign=middle;whiteSpace=wrap;rounded=0;" vertex="1" parent="1">
          <mxGeometry x="800" y="690" width="60" height="30" as="geometry" />
        </mxCell>
        <mxCell id="SgrOB6nNnlSaveZYlPrG-55" value="Yes" style="text;html=1;align=center;verticalAlign=middle;whiteSpace=wrap;rounded=0;" vertex="1" parent="1">
          <mxGeometry x="520" y="360" width="60" height="30" as="geometry" />
        </mxCell>
        <mxCell id="SgrOB6nNnlSaveZYlPrG-60" value="" style="edgeStyle=orthogonalEdgeStyle;rounded=0;orthogonalLoop=1;jettySize=auto;html=1;exitX=0.497;exitY=0.954;exitDx=0;exitDy=0;exitPerimeter=0;" edge="1" parent="1" source="SgrOB6nNnlSaveZYlPrG-56" target="SgrOB6nNnlSaveZYlPrG-59">
          <mxGeometry relative="1" as="geometry" />
        </mxCell>
        <mxCell id="SgrOB6nNnlSaveZYlPrG-62" value="" style="edgeStyle=orthogonalEdgeStyle;rounded=0;orthogonalLoop=1;jettySize=auto;html=1;exitX=0.092;exitY=0.508;exitDx=0;exitDy=0;exitPerimeter=0;" edge="1" parent="1" source="SgrOB6nNnlSaveZYlPrG-56" target="SgrOB6nNnlSaveZYlPrG-61">
          <mxGeometry relative="1" as="geometry" />
        </mxCell>
        <mxCell id="SgrOB6nNnlSaveZYlPrG-56" value="Base your choice here&amp;nbsp;&lt;div&gt;on apperence&lt;/div&gt;" style="ellipse;shape=cloud;whiteSpace=wrap;html=1;" vertex="1" parent="1">
          <mxGeometry x="440" y="400" width="160" height="110" as="geometry" />
        </mxCell>
        <mxCell id="SgrOB6nNnlSaveZYlPrG-67" value="" style="edgeStyle=orthogonalEdgeStyle;rounded=0;orthogonalLoop=1;jettySize=auto;html=1;" edge="1" parent="1" source="SgrOB6nNnlSaveZYlPrG-59" target="SgrOB6nNnlSaveZYlPrG-65">
          <mxGeometry relative="1" as="geometry" />
        </mxCell>
        <mxCell id="SgrOB6nNnlSaveZYlPrG-59" value="Starling" style="rhombus;whiteSpace=wrap;html=1;fillColor=light-dark(#6A00FF,#7F00FF);fontColor=#ffffff;strokeColor=#3700CC;" vertex="1" parent="1">
          <mxGeometry x="480" y="600" width="80" height="80" as="geometry" />
        </mxCell>
        <mxCell id="SgrOB6nNnlSaveZYlPrG-66" style="edgeStyle=orthogonalEdgeStyle;rounded=0;orthogonalLoop=1;jettySize=auto;html=1;exitX=0.5;exitY=1;exitDx=0;exitDy=0;entryX=0;entryY=0.5;entryDx=0;entryDy=0;" edge="1" parent="1" source="SgrOB6nNnlSaveZYlPrG-61" target="SgrOB6nNnlSaveZYlPrG-65">
          <mxGeometry relative="1" as="geometry" />
        </mxCell>
        <mxCell id="SgrOB6nNnlSaveZYlPrG-61" value="&lt;font style=&quot;color: light-dark(rgb(0, 0, 0), rgb(0, 0, 0));&quot;&gt;Revolut&lt;/font&gt;" style="rhombus;whiteSpace=wrap;html=1;fillColor=light-dark(#E1D5E7,#FFFFFF);strokeColor=#9673a6;" vertex="1" parent="1">
          <mxGeometry x="280" y="415" width="80" height="80" as="geometry" />
        </mxCell>
        <mxCell id="SgrOB6nNnlSaveZYlPrG-63" value="Ash" style="shape=umlActor;verticalLabelPosition=bottom;verticalAlign=top;html=1;outlineConnect=0;" vertex="1" parent="1">
          <mxGeometry x="395" y="560" width="20" height="40" as="geometry" />
        </mxCell>
        <mxCell id="SgrOB6nNnlSaveZYlPrG-64" value="&lt;font style=&quot;line-height: 70%; font-size: 6px;&quot;&gt;Your choice here wont effect the savings account at all, it will just act as another debit account that you&#39;ll have another card for :)&lt;/font&gt;" style="shape=callout;whiteSpace=wrap;html=1;perimeter=calloutPerimeter;position2=0.62;size=10;position=0.69;base=20;" vertex="1" parent="1">
          <mxGeometry x="340" y="500" width="130" height="60" as="geometry" />
        </mxCell>
        <mxCell id="SgrOB6nNnlSaveZYlPrG-69" value="" style="edgeStyle=orthogonalEdgeStyle;rounded=0;orthogonalLoop=1;jettySize=auto;html=1;" edge="1" parent="1" source="SgrOB6nNnlSaveZYlPrG-65" target="SgrOB6nNnlSaveZYlPrG-68">
          <mxGeometry relative="1" as="geometry" />
        </mxCell>
        <mxCell id="SgrOB6nNnlSaveZYlPrG-71" style="edgeStyle=orthogonalEdgeStyle;rounded=0;orthogonalLoop=1;jettySize=auto;html=1;entryX=0.5;entryY=0;entryDx=0;entryDy=0;" edge="1" parent="1" source="SgrOB6nNnlSaveZYlPrG-65" target="SgrOB6nNnlSaveZYlPrG-70">
          <mxGeometry relative="1" as="geometry" />
        </mxCell>
        <mxCell id="SgrOB6nNnlSaveZYlPrG-65" value="&lt;font style=&quot;font-size: 9px;&quot;&gt;Want more options in saving accounts in the future from this company?&lt;/font&gt;" style="whiteSpace=wrap;html=1;aspect=fixed;" vertex="1" parent="1">
          <mxGeometry x="480" y="760" width="80" height="80" as="geometry" />
        </mxCell>
        <mxCell id="SgrOB6nNnlSaveZYlPrG-68" value="Tembo" style="rhombus;whiteSpace=wrap;html=1;fillColor=#e51400;fontColor=#ffffff;strokeColor=#B20000;" vertex="1" parent="1">
          <mxGeometry x="480" y="920" width="80" height="80" as="geometry" />
        </mxCell>
        <mxCell id="SgrOB6nNnlSaveZYlPrG-70" value="Chip" style="rhombus;whiteSpace=wrap;html=1;fillColor=#6d8764;fontColor=#ffffff;strokeColor=#3A5431;" vertex="1" parent="1">
          <mxGeometry x="600" y="920" width="80" height="80" as="geometry" />
        </mxCell>
        <mxCell id="SgrOB6nNnlSaveZYlPrG-72" value="&lt;h1 style=&quot;margin-top: 0px;&quot;&gt;Why?&lt;/h1&gt;&lt;div&gt;+5% AER&lt;/div&gt;&lt;div&gt;&lt;br&gt;&lt;/div&gt;&lt;div&gt;+Chase is a strong bank that offers credit, debit and savings.&amp;nbsp;&lt;/div&gt;&lt;div&gt;&lt;br&gt;&lt;/div&gt;&lt;div&gt;-After a year interest on the savings bank drops below inflation (2.75%)&lt;/div&gt;" style="text;html=1;whiteSpace=wrap;overflow=hidden;rounded=0;" vertex="1" parent="1">
          <mxGeometry x="1160" y="640" width="80" height="360" as="geometry" />
        </mxCell>
        <mxCell id="SgrOB6nNnlSaveZYlPrG-73" value="&lt;h1 style=&quot;margin-top: 0px;&quot;&gt;Why?&lt;/h1&gt;&lt;div&gt;+4.86% AER&lt;/div&gt;&lt;div&gt;&lt;br&gt;&lt;/div&gt;&lt;div&gt;+One of the strongest overall&lt;/div&gt;&lt;div&gt;&lt;br&gt;&lt;/div&gt;&lt;div&gt;+After the boost the interest is still higher then 90% of easy access acounts that are available (4.1%)&lt;/div&gt;&lt;div&gt;&lt;br&gt;&lt;/div&gt;&lt;div&gt;-Like every account this could all changer by the next financial year&lt;/div&gt;&lt;div&gt;&lt;br&gt;&lt;/div&gt;&lt;div&gt;-Doesn&#39;t seem to be an option for a credit account&lt;/div&gt;" style="text;html=1;whiteSpace=wrap;overflow=hidden;rounded=0;" vertex="1" parent="1">
          <mxGeometry x="1320" y="640" width="80" height="510" as="geometry" />
        </mxCell>
        <mxCell id="SgrOB6nNnlSaveZYlPrG-75" style="edgeStyle=orthogonalEdgeStyle;rounded=0;orthogonalLoop=1;jettySize=auto;html=1;" edge="1" parent="1" source="SgrOB6nNnlSaveZYlPrG-74">
          <mxGeometry relative="1" as="geometry">
            <mxPoint x="400" y="800" as="targetPoint" />
            <Array as="points">
              <mxPoint x="1200" y="1470" />
              <mxPoint x="400" y="1470" />
            </Array>
          </mxGeometry>
        </mxCell>
        <mxCell id="SgrOB6nNnlSaveZYlPrG-74" value="But....." style="shape=tape;whiteSpace=wrap;html=1;" vertex="1" parent="1">
          <mxGeometry x="1140" y="910" width="120" height="100" as="geometry" />
        </mxCell>
        <mxCell id="SgrOB6nNnlSaveZYlPrG-76" value="&lt;br&gt;This is something ypu could do after the first year to always have high savings" style="text;html=1;align=center;verticalAlign=middle;whiteSpace=wrap;rounded=0;" vertex="1" parent="1">
          <mxGeometry x="530" y="1420" width="550" height="30" as="geometry" />
        </mxCell>
        <mxCell id="SgrOB6nNnlSaveZYlPrG-78" value="&lt;h1 style=&quot;margin-top: 0px;&quot;&gt;Why?&lt;/h1&gt;&lt;div&gt;Aside from whats listed in the other trading 212 list to the right, I am not sure about the ease of use with their interface but i would be suprised if it was an issue.&lt;/div&gt;&lt;div&gt;&lt;br&gt;&lt;/div&gt;&lt;div&gt;(Starling and revolut have been tested by me and kuba.)&lt;/div&gt;" style="text;html=1;whiteSpace=wrap;overflow=hidden;rounded=0;" vertex="1" parent="1">
          <mxGeometry x="1000" y="800" width="80" height="330" as="geometry" />
        </mxCell>
        <mxCell id="SgrOB6nNnlSaveZYlPrG-79" value="&lt;h1 style=&quot;margin-top: 0px;&quot;&gt;Why?&lt;/h1&gt;&lt;div&gt;Potentially earn the most due to the bonus.&lt;/div&gt;&lt;div&gt;&lt;br&gt;&lt;/div&gt;&lt;div&gt;- Only 3.51% AER on top of the bonus.&lt;/div&gt;" style="text;html=1;whiteSpace=wrap;overflow=hidden;rounded=0;" vertex="1" parent="1">
          <mxGeometry x="880" y="800" width="80" height="420" as="geometry" />
        </mxCell>
        <mxCell id="SgrOB6nNnlSaveZYlPrG-80" value="&lt;h1 style=&quot;margin-top: 0px;&quot;&gt;Why?&lt;/h1&gt;&lt;div&gt;3.75% AER&lt;/div&gt;&lt;div&gt;&lt;br&gt;&lt;/div&gt;&lt;div&gt;+Good middle ground, not the highest or lowest AER but likely to stay consistant as a good option.&lt;/div&gt;" style="text;html=1;whiteSpace=wrap;overflow=hidden;rounded=0;" vertex="1" parent="1">
          <mxGeometry x="760" y="800" width="80" height="370" as="geometry" />
        </mxCell>
        <mxCell id="SgrOB6nNnlSaveZYlPrG-81" value="&lt;h1 style=&quot;margin-top: 0px;&quot;&gt;Why?&lt;/h1&gt;&lt;div&gt;4.56% AER boosted (3.24% standard)&lt;/div&gt;&lt;div&gt;&lt;br&gt;&lt;/div&gt;&lt;div&gt;+options within the account to keep savings high, the boost is finished the account can be changed to a cash ISA to stand at 4.33% AER&lt;/div&gt;&lt;div&gt;&lt;br&gt;&lt;/div&gt;&lt;div&gt;-slightly lower interest than other options&lt;/div&gt;" style="text;html=1;whiteSpace=wrap;overflow=hidden;rounded=0;" vertex="1" parent="1">
          <mxGeometry x="600" y="1000" width="80" height="360" as="geometry" />
        </mxCell>
        <mxCell id="SgrOB6nNnlSaveZYlPrG-82" value="&lt;h1 style=&quot;margin-top: 0px;&quot;&gt;Why?&lt;/h1&gt;&lt;div&gt;4.64% AER&lt;/div&gt;&lt;div&gt;&lt;br&gt;&lt;/div&gt;&lt;div&gt;+Not boosted so you are less likely to need to change after a year.&lt;/div&gt;&lt;div&gt;&lt;br&gt;&lt;/div&gt;&lt;div&gt;-Only one kind of account is available&lt;/div&gt;" style="text;html=1;whiteSpace=wrap;overflow=hidden;rounded=0;" vertex="1" parent="1">
          <mxGeometry x="480" y="1000" width="80" height="310" as="geometry" />
        </mxCell>
      </root>
    </mxGraphModel>
  </diagram>
</mxfile>
